<svg xmlns="http://www.w3.org/2000/svg" xmlns:xlink="http://www.w3.org/1999/xlink" viewBox="0,0,256,256" width="64px" height="64px" fill-rule="nonzero"><g fill="#ffffff" fill-rule="nonzero" stroke="none" stroke-width="1" stroke-linecap="butt" stroke-linejoin="miter" stroke-miterlimit="10" stroke-dasharray="" stroke-dashoffset="0" font-family="none" font-weight="none" font-size="none" text-anchor="none" style="mix-blend-mode: normal"><g transform="scale(4,4)"><path d="M31,0c-1.31641,0 -2.42578,0.85938 -2.82812,2.04297c-10.08984,0.4375 -18.17187,8.76172 -18.17187,18.95703v4.84375l-9.30078,28.82813c-0.25391,0.78516 -0.16797,1.64844 0.23047,2.37109c0.39453,0.71875 1.07813,1.25 1.875,1.45703l1.46094,0.375c8.16016,2.10547 16.53125,3.24219 24.92578,3.45313l1.14844,0.76563c0.50391,0.33594 1.08203,0.50391 1.66016,0.50391c0.57813,0 1.15625,-0.16797 1.66406,-0.50391l1.14844,-0.76562c8.39063,-0.21094 16.76172,-1.34766 24.92188,-3.45312l1.45703,-0.375c0.79688,-0.20703 1.48438,-0.73437 1.88281,-1.45703c0.39453,-0.72266 0.48047,-1.58594 0.22656,-2.37109l-9.30078,-28.82812v-4.84375c0,-10.19531 -8.08203,-18.51953 -18.17187,-18.95703c-0.40234,-1.18359 -1.51172,-2.04297 -2.82812,-2.04297zM31,2h2c0.55078,0 1,0.44922 1,1v23c0,0.55078 -0.44922,1 -1,1h-2c-0.55078,0 -1,-0.44922 -1,-1v-23c0,-0.55078 0.44922,-1 1,-1zM28,4.05078v20.90234c-1.23828,-0.61719 -2.60937,-0.95312 -4,-0.95312h-1.60937c-3.68359,0 -6.95703,2.20313 -8.34375,5.61719l-10.89062,26.87109c-0.19922,-0.08984 -0.37109,-0.21875 -0.47656,-0.41016c-0.13281,-0.24609 -0.16406,-0.52344 -0.07812,-0.79297l9.35156,-28.97656l0.04688,-5.30859c0,-9.03516 7.09375,-16.42578 16,-16.94922zM36,4.05078c8.90625,0.52344 16,7.91406 16,16.94922v5.15625l9.39453,29.12891c0.08594,0.26563 0.0625,0.54688 -0.07422,0.79297c-0.10547,0.19141 -0.27734,0.32422 -0.47656,0.41016l-10.89062,-26.87109c-1.38672,-3.41406 -4.66016,-5.61719 -8.34375,-5.61719h-1.60937c-1.39062,0 -2.76172,0.33594 -4,0.95313zM38.875,6.58203c-0.38672,0.04297 -0.73047,0.3125 -0.84766,0.71094c-0.15625,0.52734 0.14844,1.08594 0.67578,1.24219c0.6875,0.20313 1.35938,0.46484 1.99609,0.77734c0.14063,0.07031 0.28906,0.10156 0.4375,0.10156c0.36719,0 0.72266,-0.20703 0.89453,-0.5625c0.24609,-0.49609 0.03906,-1.09375 -0.45312,-1.33594c-0.73828,-0.35937 -1.51172,-0.66406 -2.30859,-0.89844c-0.12891,-0.03906 -0.26562,-0.05078 -0.39453,-0.03516zM44.27344,9.5625c-0.25391,0.01563 -0.50391,0.125 -0.6875,0.33203c-0.36719,0.41016 -0.33594,1.04297 0.07422,1.41406c1.40234,1.25 2.53516,2.82031 3.27734,4.53516c0.16406,0.37891 0.53125,0.60547 0.91797,0.60547c0.13281,0 0.26563,-0.02734 0.39453,-0.08594c0.50781,-0.21875 0.74219,-0.80469 0.52344,-1.3125c-0.85547,-1.98047 -2.16406,-3.78906 -3.77734,-5.23437c-0.20703,-0.18359 -0.46875,-0.26953 -0.72266,-0.25391zM22.39063,26h1.60938c1.16016,0 2.30469,0.28906 3.31641,0.83594c0.32031,0.17188 0.65234,0.31641 0.98438,0.44922c0.48438,1.01172 1.50781,1.71484 2.69922,1.71484h2c1.19141,0 2.21484,-0.70312 2.69922,-1.71484c0.33203,-0.13281 0.66016,-0.27734 0.98438,-0.44922c1.01172,-0.54687 2.15625,-0.83594 3.31641,-0.83594h1.60938c2.86328,0 5.41406,1.71484 6.48828,4.37109l10.80469,26.64844c-6.85937,1.74609 -13.87109,2.80078 -20.91016,3.1875l4.79297,-3.19531c0.55078,0.60156 1.33594,0.98828 2.21484,0.98828c1.65234,0 3,-1.34766 3,-3c0,-1.27734 -0.80859,-2.36328 -1.9375,-2.79687l5.76953,-8.64844c0.30859,-0.46094 0.18359,-1.07812 -0.27734,-1.38672c-0.46094,-0.30859 -1.08203,-0.18359 -1.38672,0.27734l-6.38281,9.57031l-8.78516,-10.37891v-1.63672c0,-1.65234 -1.34766,-3 -3,-3c-1.65234,0 -3,1.34766 -3,3v1.63672l-8.78516,10.37891l-6.38281,-9.57031c-0.30859,-0.46094 -0.92578,-0.58203 -1.38672,-0.27344c-0.46094,0.30469 -0.58594,0.92578 -0.27734,1.38672l5.76953,8.64453c-1.12891,0.43359 -1.9375,1.51953 -1.9375,2.79688c0,1.65234 1.34766,3 3,3c0.87891,0 1.66406,-0.38672 2.21484,-0.98828l4.79297,3.19531c-7.04297,-0.38672 -14.05078,-1.44141 -20.91016,-3.1875l10.80469,-26.64844c1.07813,-2.65625 3.62109,-4.37109 6.48828,-4.37109zM23.04297,28c-2.86328,0 -5.41016,1.71484 -6.48437,4.36719l-0.05469,0.12891c-0.5,1.23438 -0.35547,2.63281 0.38672,3.73828c0.74609,1.10547 1.98828,1.76563 3.32031,1.76563h5.78906c2.20703,0 4,-1.79297 4,-4c0,-3.30859 -2.69141,-6 -6,-6zM40,28c-3.30859,0 -6,2.69141 -6,6c0,2.20703 1.79297,4 4,4h5.78906c1.33203,0 2.57422,-0.66016 3.32031,-1.76562c0.74219,-1.10547 0.89063,-2.50391 0.38672,-3.73828l-0.05078,-0.125c-1.07422,-2.65625 -3.625,-4.37109 -6.48828,-4.37109zM23.04297,30h0.95703c2.20703,0 4,1.79297 4,4c0,1.10156 -0.89844,2 -2,2h-5.78906c-0.67578,0 -1.28125,-0.32031 -1.66016,-0.88281c-0.37891,-0.5625 -0.44922,-1.24219 -0.19531,-1.86719l0.05078,-0.12891c0.76953,-1.89453 2.58984,-3.12109 4.63672,-3.12109zM40,30h0.95703c2.04688,0 3.86719,1.22656 4.63672,3.125l0.05078,0.125c0.25391,0.625 0.18359,1.30859 -0.19531,1.86719c-0.37891,0.5625 -0.98437,0.88281 -1.66016,0.88281h-5.78906c-1.10156,0 -2,-0.89844 -2,-2c0,-2.20703 1.79297,-4 4,-4zM32,39c0.55078,0 1,0.44922 1,1v1h-2v-1c0,-0.55078 0.44922,-1 1,-1zM17,40c-0.55469,0 -1,0.44531 -1,1c0,0.55469 0.44531,1 1,1h9c0.55469,0 1,-0.44531 1,-1c0,-0.55469 -0.44531,-1 -1,-1zM38,40c-0.55469,0 -1,0.44531 -1,1c0,0.55469 0.44531,1 1,1h9c0.55469,0 1,-0.44531 1,-1c0,-0.55469 -0.44531,-1 -1,-1zM30.46484,43h3.07031l8.88281,10.5c-0.09375,0.15625 -0.17187,0.32422 -0.23437,0.5h-20.36719c-0.0625,-0.17578 -0.14062,-0.34375 -0.23437,-0.5zM32,46c-0.55469,0 -1,0.44531 -1,1v5c0,0.55469 0.44531,1 1,1c0.55469,0 1,-0.44531 1,-1v-5c0,-0.55469 -0.44531,-1 -1,-1zM27,49c-0.55469,0 -1,0.44531 -1,1v2c0,0.55469 0.44531,1 1,1c0.55469,0 1,-0.44531 1,-1v-2c0,-0.55469 -0.44531,-1 -1,-1zM37,49c-0.55469,0 -1,0.44531 -1,1v2c0,0.55469 0.44531,1 1,1c0.55469,0 1,-0.44531 1,-1v-2c0,-0.55469 -0.44531,-1 -1,-1zM19,54c0.55078,0 1,0.44922 1,1c0,0.55078 -0.44922,1 -1,1c-0.55078,0 -1,-0.44922 -1,-1c0,-0.55078 0.44922,-1 1,-1zM45,54c0.55078,0 1,0.44922 1,1c0,0.55078 -0.44922,1 -1,1c-0.55078,0 -1,-0.44922 -1,-1c0,-0.55078 0.44922,-1 1,-1zM23.30078,56h17.39844l-8.14062,5.42969c-0.33984,0.22656 -0.77734,0.22656 -1.11328,0z"></path></g></g></svg>